#!OML:ASF E:\CV Data\Top Level 1\Subject 1\Session 1\player.ASF
:FULLY-SPECIFIED
:DEGREES
1113
root 1.59295 17.476 5.25052 19.5555 37.627 -6.62717
lowerback 17.9003 7.52527 9.42744
upperback 1.37938 12.4219 6.22077
thorax -7.86989 5.77549 -1.41909
lowerneck 4.82276 -19.6728 -16.7402
upperneck -24.1663 -23.9057 30.8143
head -1.47972 -13.2086 11.7781
rclavicle -7.95139e-014 -6.36111e-014
rhumerus 311.384 436.462 580.015
rradius 67.3124
rwrist -11.0877
rhand -28.4268 31.46
rfingers 7.12502
rthumb -1.79814 1.48783
lclavicle -7.95139e-014 -6.36111e-014
lhumerus -44.5718 1.13115 80.8642
lradius 70.8265
lwrist -12.0495
lhand -30.0167 2.74191
lfingers 7.12502
lthumb -3.33362 32.6956
rfemur 1.85435 -4.96925 13.6951
rtibia 53.8841
rfoot 8.60031 -15.3939
rtoes 9.83853
lfemur -49.4287 -7.63677 -17.3277
ltibia 28.1982
lfoot 1.03759 -26.9894
ltoes 16.8542
1114
root 1.55108 17.49 5.28719 19.2318 37.9698 -6.86618
lowerback 17.906 7.25355 9.16857
upperback 1.36167 12.0104 6.12857
thorax -7.95139 5.58217 -1.30311
lowerneck 4.79983 -19.5881 -16.9226
upperneck -23.8622 -23.8225 31.161
head -1.31779 -13.1734 11.8825
rclavicle 2.54444e-014 -5.40694e-014
rhumerus 318.071 433.659 588.129
rradius 65.2537
rwrist -10.2849
rhand -28.7272 30.3591
rfingers 7.12502
rthumb -2.08828 0.389562
lclavicle 2.54444e-014 -5.40694e-014
lhumerus -44.4 0.756331 81.0071
lradius 69.1398
lwrist -11.1968
lhand -26.8768 1.63717
lfingers 7.12502
lthumb -0.301115 31.6167
rfemur 1.43211 -4.68361 13.2349
rtibia 54.0779
rfoot 8.27617 -16.014
rtoes 10.6653
lfemur -49.1809 -7.7642 -16.8854
ltibia 28.097
lfoot 0.968522 -27.0002
ltoes 16.6432
1115
root 1.5095 17.5032 5.32128 18.9021 38.26 -7.10479
lowerback 17.893 6.98537 8.89468
upperback 1.35033 11.5979 6.04471
thorax -8.01808 5.39038 -1.16502
lowerneck 4.76527 -19.493 -17.1166
upperneck -23.5321 -23.7349 31.4797
head -1.15171 -13.1306 11.9794
rclavicle 2.22639e-014 -3.81667e-014
rhumerus 323.505 430.459 594.909
rradius 62.758
rwrist -8.67644
rhand -28.9591 28.584
rfingers 7.12502
rthumb -2.31224 -1.38326
lclavicle 2.22639e-014 -3.81667e-014
lhumerus -44.2171 0.373109 81.1713
lradius 67.3605
lwrist -10.8147
lhand -23.7532 1.10602
lfingers 7.12502
lthumb 2.71568 31.0685
rfemur 0.967853 -4.40077 12.762
rtibia 54.2886
rfoot 7.97797 -16.4905
rtoes 11.4037
lfemur -48.9368 -7.88377 -16.4443
ltibia 28.005
lfoot 0.896299 -26.9746
ltoes 16.4041
1116
root 1.46784 17.5153 5.35249 18.5586 38.4997 -7.33519
lowerback 17.8672 6.71398 8.59483
upperback 1.34804 11.1743 5.97116
thorax -8.07275 5.19557 -0.995829
lowerneck 4.73603 -19.377 -17.3062
upperneck -23.1867 -23.627 31.7618
head -0.994639 -13.0745 12.0713
rclavicle 2.38542e-014 -1.59028e-014
rhumerus 328.005 426.848 600.64
rradius 59.8875
rwrist -6.66755
rhand -28.8475 26.1931
rfingers 7.12502
rthumb -2.20443 -3.77531
lclavicle 2.38542e-014 -1.59028e-014
lhumerus -44.0266 -0.0272378 81.3709
lradius 65.4756
lwrist -10.8787
lhand -20.9964 1.10128
lfingers 7.12502
lthumb 5.37786 31.013
rfemur 0.478769 -4.12078 12.2711
rtibia 54.5195
rfoot 7.7054 -16.8009
rtoes 12.0663
lfemur -48.6835 -8.00469 -16.0099
ltibia 27.9217
lfoot 0.819825 -26.9077
ltoes 16.1275
1117
root 1.42633 17.5263 5.38058 18.203 38.6824 -7.55711
lowerback 17.8371 6.44483 8.28096
upperback 1.35251 10.7501 5.90522
thorax -8.11851 5.00188 -0.808
lowerneck 4.70019 -19.247 -17.5043
upperneck -22.8217 -23.5088 32.0077
head -0.839556 -13.0081 12.1557
rclavicle -4.77083e-014 -3.18055e-014
rhumerus 331.827 422.803 605.568
rradius 56.7169
rwrist -4.74632
rhand -28.225 23.4173
rfingers 7.12502
rthumb -1.60318 -6.55646
lclavicle -4.77083e-014 -3.18055e-014
lhumerus -43.8253 -0.470374 81.6275
lradius 63.5023
lwrist -11.2733
lhand -18.7705 1.49212
lfingers 7.12502
lthumb 7.52668 31.3382
rfemur -0.0404481 -3.84073 11.7598
rtibia 54.7751
rfoot 7.4617 -16.9322
rtoes 12.5848
lfemur -48.422 -8.12475 -15.5829
ltibia 27.8475
lfoot 0.738556 -26.7955
ltoes 15.7942
1118
root 1.38514 17.5361 5.40556 17.8337 38.8034 -7.77107
lowerback 17.8071 6.18267 7.95709
upperback 1.36143 10.3328 5.84289
thorax -8.15783 4.8123 -0.61013
lowerneck 4.66044 -19.1065 -17.6996
upperneck -22.4392 -23.3834 32.2169
head -0.688512 -12.9341 12.231
rclavicle -8.90555e-014 -1.74931e-014
rhumerus 335.15 418.25 609.839
rradius 53.3186
rwrist -3.25644
rhand -27.0071 20.4456
rfingers 7.12502
rthumb -0.426904 -9.53374
lclavicle -8.90555e-014 -1.74931e-014
lhumerus -43.614 -0.959719 81.9398
lradius 61.4761
lwrist -11.8338
lhand -17.0559 2.16277
lfingers 7.12502
lthumb 9.18142 31.9429
rfemur -0.585856 -3.55464 11.2304
rtibia 55.0514
rfoot 7.24679 -16.8872
rtoes 12.943
lfemur -48.1502 -8.23531 -15.1682
ltibia 27.7865
lfoot 0.649821 -26.6433
ltoes 15.4109
1119
root 1.34438 17.5447 5.42783 17.4405 38.862 -7.9837
lowerback 17.7824 5.9293 7.62869
upperback 1.37667 9.92648 5.78601
thorax -8.19074 4.6286 -0.404665
lowerneck 4.60698 -18.9586 -17.8963
upperneck -22.0322 -23.2544 32.3927
head -0.535978 -12.8536 12.2959
rclavicle -9.54166e-015 1.04958e-013
rhumerus 338.087 413.178 613.554
rradius 49.76
rwrist -2.44603
rhand -25.4058 17.4129
rfingers 7.12502
rthumb 1.11961 -12.5639
lclavicle -9.54166e-015 1.04958e-013
lhumerus -43.3954 -1.46432 82.2958
lradius 59.4266
lwrist -12.397
lhand -15.7573 2.94293
lfingers 7.12502
lthumb 10.4343 32.664
rfemur -1.14828 -3.26107 10.6925
rtibia 55.3446
rfoot 7.0547 -16.6749
rtoes 13.1558
lfemur -47.8609 -8.33136 -14.7622
ltibia 27.7438
lfoot 0.548425 -26.4549
ltoes 14.9715
1120
root 1.30401 17.5525 5.44835 17.012 38.8582 -8.19791
lowerback 17.7835 5.69221 7.31047
upperback 1.39645 9.5452 5.72533
thorax -8.22571 4.45603 -0.214749
lowerneck 4.52929 -18.8198 -18.0914
upperneck -21.5956 -23.1429 32.5494
head -0.371682 -12.7774 12.3477
rclavicle 4.13472e-014 -6.67916e-014
rhumerus 340.766 407.449 616.817
rradius 46.0754
rwrist -2.22059
rhand -23.7012 14.3638
rfingers 7.12502
rthumb 2.76597 -15.598
lclavicle 4.13472e-014 -6.67916e-014
lhumerus -43.1681 -1.98565 82.6806
lradius 57.39
lwrist -12.8023
lhand -14.7538 3.70955
lfingers 7.12502
lthumb 11.4022 33.3795
rfemur -1.70865 -2.95718 10.1583
rtibia 55.6467
rfoot 6.88309 -16.3141
rtoes 13.2234
lfemur -47.5395 -8.40247 -14.368
ltibia 27.724
lfoot 0.427448 -26.2419
ltoes 14.4936
1121
root 1.26421 17.5595 5.46716 16.5531 38.7967 -8.41636
lowerback 17.7904 5.46467 6.98901
upperback 1.42212 9.17606 5.66866
thorax -8.25484 4.28975 -0.0199453
lowerneck 4.42944 -18.6819 -18.2814
upperneck -21.1246 -23.0374 32.6897
head -0.197173 -12.7001 12.3894
rclavicle -4.77083e-015 4.13472e-014
rhumerus 343.244 400.994 619.685
rradius 42.3004
rwrist -2.27553
rhand -22.2977 11.388
rfingers 7.12502
rthumb 4.12127 -18.5518
lclavicle -4.77083e-015 4.13472e-014
lhumerus -42.9497 -2.46115 83.0725
lradius 55.4022
lwrist -12.9331
lhand -13.9492 4.37517
lfingers 7.12502
lthumb 12.1781 34.0007
rfemur -2.2714 -2.65368 9.63488
rtibia 55.9531
rfoot 6.71755 -15.832
rtoes 13.0929
lfemur -47.1961 -8.45586 -13.9784
ltibia 27.733
lfoot 0.28775 -26.0002
ltoes 13.989
1122
root 1.22457 17.5659 5.48526 16.0571 38.6782 -8.64128
lowerback 17.7976 5.25547 6.64826
upperback 1.4573 8.82722 5.62128
thorax -8.27425 4.13462 0.192691
lowerneck 4.32245 -18.5496 -18.4553
upperneck -20.6392 -22.9415 32.8167
head -0.0205182 -12.6264 12.4233
rclavicle 3.02153e-014 9.54166e-015
rhumerus 345.569 393.665 622.217
rradius 38.4656
rwrist -2.14745
rhand -21.6623 8.66733
rfingers 7.12502
rthumb 4.73481 -21.2598
lclavicle 3.02153e-014 9.54166e-015
lhumerus -42.7425 -2.87489 83.4671
lradius 53.4902
lwrist -12.7089
lhand -13.283 4.90677
lfingers 7.12502
lthumb 12.8204 34.4931
rfemur -2.82237 -2.35129 9.1352
rtibia 56.2559
rfoot 6.5588 -15.2585
rtoes 12.856
lfemur -46.8209 -8.47955 -13.5961
ltibia 27.7733
lfoot 0.123728 -25.7414
ltoes 13.4766
